<?xml version="1.0" encoding="UTF-8" standalone="no"?>
<!-- Created with Inkscape (http://www.inkscape.org/) -->

<svg
   xmlns:dc="http://purl.org/dc/elements/1.1/"
   xmlns:cc="http://creativecommons.org/ns#"
   xmlns:rdf="http://www.w3.org/1999/02/22-rdf-syntax-ns#"
   xmlns:svg="http://www.w3.org/2000/svg"
   xmlns="http://www.w3.org/2000/svg"
   xmlns:sodipodi="http://sodipodi.sourceforge.net/DTD/sodipodi-0.dtd"
   xmlns:inkscape="http://www.inkscape.org/namespaces/inkscape"
   width="120"
   height="60"
   viewBox="0 0 31.749999 15.875"
   version="1.1"
   id="svg100"
   inkscape:version="0.92.4 (5da689c313, 2019-01-14)"
   sodipodi:docname="wen-logo.svg">
  <defs
     id="defs94">
    <clipPath
       id="clipPath18"
       clipPathUnits="userSpaceOnUse">
      <path
         inkscape:connector-curvature="0"
         id="path16"
         d="M 0,365.89 H 595.276 V 0 H 0 Z" />
    </clipPath>
  </defs>
  <sodipodi:namedview
     id="base"
     pagecolor="#ffffff"
     bordercolor="#666666"
     borderopacity="1.0"
     inkscape:pageopacity="0.0"
     inkscape:pageshadow="2"
     inkscape:zoom="2.8"
     inkscape:cx="121.42857"
     inkscape:cy="61.607143"
     inkscape:document-units="mm"
     inkscape:current-layer="layer1"
     showgrid="false"
     units="px"
     width="120px"
     inkscape:window-width="1920"
     inkscape:window-height="1018"
     inkscape:window-x="-8"
     inkscape:window-y="-8"
     inkscape:window-maximized="1" />
  <metadata
     id="metadata97">
    <rdf:RDF>
      <cc:Work
         rdf:about="">
        <dc:format>image/svg+xml</dc:format>
        <dc:type
           rdf:resource="http://purl.org/dc/dcmitype/StillImage" />
        <dc:title></dc:title>
      </cc:Work>
    </rdf:RDF>
  </metadata>
  <g
     inkscape:label="Calque 1"
     inkscape:groupmode="layer"
     id="layer1"
     transform="translate(0,-281.12499)">
    <g
       clip-path="url(#clipPath18)"
       id="g14"
       transform="matrix(0.06996654,0,0,-0.06996654,-4.8130555,305.27921)">
      <g
         transform="translate(314.2021,324.9927)"
         id="g24">
        <path
           id="path26"
           style="fill:#231f20;fill-opacity:1;fill-rule:evenodd;stroke:#8aacc4;stroke-opacity:1"
           d="m 0,0 c -16.453,-29.121 -25.105,-61.976 -29.667,-98.269 3.662,-26.959 12.28,-51.468 24.92,-72.494 3.209,-5.939 10.755,-0.75 7.362,6.23 C -14.524,-118.938 -10.06,-36.602 0,0 m -67.047,-26.341 c -5.828,-17.995 -10.972,-37.7 -15.292,-59.468 10.038,-32.389 21.871,-60.105 35.681,-82.689 2.357,4.538 -3.208,18.694 -2.265,33.699 -13.157,33.966 -17.795,70.72 -18.124,108.458 M 70.862,-9.35 c -18.785,-20.671 -35.398,-47.857 -48.14,-86.653 -0.496,-34.053 3.138,-59.02 10.194,-76.459 11.541,-15.121 15.778,-4.049 14.159,4.248 -12.931,48.341 -1.794,118.64 23.787,158.864 m 33.699,-10.478 C 93.213,-35.485 85.425,-47.287 77.375,-82.693 c 1.2,-30.857 8.37,-67.596 31.717,-90.902 -6.314,18.62 -7.848,41.511 -7.363,67.68 -6.041,26.242 -4.437,53.334 2.832,86.087 m 44.844,-26.079 c -28.237,-34.48 -32.565,-74.479 -20.534,-118.252 49.666,32.157 70.263,66.642 20.534,118.252 m -354.052,2.761 c 2.855,-5.911 5.802,-11.64 9.034,-16.799 2.54,1.13 5.223,2.4 7.764,3.529 2.629,8.417 5.934,16.428 10.446,23.716 -8.717,-3.847 -17.775,-7.353 -27.244,-10.446 m 34.118,-43.831 c -3.739,-27.774 -2.489,-48.896 0.566,-67.612 5.848,12.634 10.967,26.137 16.058,39.528 0.495,17.935 2.639,36.742 6.152,56.939 -7.544,-8.204 -15.232,-18.199 -22.776,-28.855 m 35.08,-8.345 c 0.814,-13.59 1.985,-27.238 7.355,-41.586 4.243,20.039 9.429,37.485 16.691,49.224 -3.065,8.811 -5.612,18.46 -7.921,25.744 -5.057,-7.307 -10.314,-17.019 -16.125,-33.382 m 46.404,55.789 c -0.403,-16.424 2.59,-35.295 6.019,-45.494 4.13,20.828 9.323,40.596 15.401,60.54 0.357,1.73 2.306,3.107 4.786,4.13 11.254,5.983 22.788,11.128 34.514,15.697 -4.2,-26.651 -5.903,-61.809 -2.126,-90.457 3.848,37.982 15.215,70.013 31.327,98.56 14.41,2.633 28.257,3.129 41.253,1.986 -10.439,-30.47 -19.446,-61.915 -19.472,-99.485 11.913,40.324 32.932,70.345 53.133,92.111 10.456,-3.513 20.142,-8.507 29.185,-14.847 1.275,-0.654 1.093,-1.722 0.949,-2.849 -9.083,-28.903 -7.62,-70.33 -3.607,-85.391 1.722,14.854 4.53,32.681 11.329,48.149 10.903,21.292 22.327,22.329 33.99,14.162 13.216,-10.15 22.657,-24.075 28.323,-41.778 6.499,-18.977 0.766,-36.557 -12.241,-51.834 -16.854,-19.516 -35.531,-31.245 -53.895,-39.438 -20.155,17.912 -29.786,45.082 -33.705,87.73 -2.937,-15.657 -4.694,-49.613 -1.276,-68.826 4.791,-26.244 -8.227,-33.561 -22.658,-35.474 -13.447,-1.285 -25.036,3.573 -32.005,8.859 -4.436,-3.898 -5.804,-7.245 -19.402,-7.442 -26.979,1.2 -36.273,22.145 -48.576,52.537 -0.273,-15.729 3.523,-22.107 2.364,-30.564 -1.671,-6.082 -5.191,-5.263 -10.053,-5.525 -10.436,-0.563 -16.76,5.884 -22.901,12.581 -14.745,22.568 -22.821,45.624 -32.855,73.565 -6.536,-11.511 -12.295,-29.771 -16.569,-50.338 -5.371,-2.184 -10.741,-4.368 -16.111,-6.551 -5.721,-2.59 -8.848,1.188 -9.38,11.333 -0.119,5.487 -0.237,10.973 -0.356,16.459 -5.052,-13.474 -10.406,-26.647 -15.931,-39.651 -15.171,-8.024 -35.627,-21.306 -41.602,-30.804 -0.409,6.387 12.626,30.462 13.278,60.551 1.096,23.824 2.635,47.942 9.382,69.208 -2.832,-0.943 -4.603,-2.065 -7.435,-3.009 -3.865,6.89 -6.992,11.995 -9.914,18.412 10.643,3.229 19.012,6.793 28.148,11.153 2.094,0.662 3.219,-1.162 3.939,-1.841 l 9.869,-9.313 c 4.127,-4.839 2.86,-9.052 0.796,-14.599 -2.72,-7.731 -5.428,-18.055 -6.726,-26.739 7.789,10.256 14.161,19.058 21.95,27.175 0.631,0.678 1.635,1.145 3.221,-0.544 2.005,-1.707 4.472,-4.161 6.529,-6.252 1.069,-0.938 2.643,-5.533 2.656,-9.636 0.02,-6.401 -0.094,-15.815 -0.279,-19.596 4.342,11.312 9.099,21.692 15.055,31.019 0.798,1.279 1.733,2.95 3.091,4.043 8.803,7.746 17.671,13.241 26.64,20.086 0.708,1.066 1.947,1.005 1.948,-1.769"
           inkscape:connector-curvature="0" />
        <path
           style="opacity:1;vector-effect:none;fill:#8aacc4;fill-opacity:1;stroke-width:0.51679379;stroke-linecap:butt;stroke-linejoin:miter;stroke-miterlimit:4;stroke-dasharray:none;stroke-dashoffset:0;stroke-opacity:1"
           d="m 219.63883,247.05973 c -3.17255,-2.49553 -4.45931,-10.0963 -4.48184,-26.47392 -0.0118,-8.54989 -0.11104,-9.68988 -0.84382,-9.68988 -0.59774,0 -0.71915,-0.25346 -0.43323,-0.90439 0.21849,-0.49742 0.58036,-3.5788 0.80416,-6.84752 0.2238,-3.26872 0.66319,-9.66405 0.97642,-14.21183 1.30421,-18.93582 6.64117,-58.6561 7.88126,-58.6561 0.24231,0 2.97022,2.49999 6.06204,5.55554 7.70987,7.61943 7.47111,6.76766 7.56304,26.98125 0.0486,10.68957 0.24955,15.80031 0.62617,15.92585 0.37718,0.12572 0.39539,0.60356 0.0569,1.49379 -0.49104,1.29153 -0.0345,9.58876 1.10425,20.06913 1.27039,11.69182 3.60243,22.89607 6.68596,32.12266 1.12004,3.35141 1.86766,6.23938 1.66138,6.41773 -0.20629,0.17835 -5.37505,2.33945 -11.48613,4.80245 -11.83167,4.76861 -13.90072,5.20543 -16.17658,3.41524 z"
           id="path4538"
           inkscape:connector-curvature="0"
           transform="matrix(0.75000002,0,0,-0.75000002,-314.2021,40.897307)" />
        <path
           style="opacity:1;vector-effect:none;fill:#8aacc4;fill-opacity:1;stroke-width:0.51679379;stroke-linecap:butt;stroke-linejoin:miter;stroke-miterlimit:4;stroke-dasharray:none;stroke-dashoffset:0;stroke-opacity:1"
           d="m 335.00993,285.19478 c -5.25767,-1.83742 -9.03157,-4.36509 -14.48188,-9.69963 -9.07215,-8.87945 -18.78293,-26.04654 -30.69474,-54.26335 -9.24071,-21.88948 -23.75092,-63.15413 -28.65484,-81.48967 -0.4084,-1.52698 -0.88605,-2.2099 -1.62654,-2.32557 -0.98727,-0.15421 -0.95537,-0.28977 0.54766,-2.32687 3.20185,-4.33955 38.14731,-31.03668 38.94221,-29.75051 0.14147,0.22891 0.51729,5.41011 0.83515,11.51377 0.89586,17.20255 2.7616,32.08313 5.24143,41.80415 0.90211,3.53632 9.10755,27.69262 14.32141,42.16135 8.54882,23.72343 20.72691,50.60784 31.48604,69.50876 4.14856,7.28791 5.70458,9.28055 6.39557,8.1902 0.87395,-1.37906 0.45524,1.32512 -0.54699,3.53259 -1.52863,3.36692 -3.14524,3.9567 -11.39872,4.15854 -6.20854,0.15183 -7.34987,0.0402 -10.36576,-1.01376 z"
           id="path4540"
           inkscape:connector-curvature="0"
           transform="matrix(0.75000002,0,0,-0.75000002,-314.2021,40.897307)" />
        <path
           style="opacity:1;vector-effect:none;fill:#000000;fill-opacity:1;stroke-width:0.51679379;stroke-linecap:butt;stroke-linejoin:miter;stroke-miterlimit:4;stroke-dasharray:none;stroke-dashoffset:0;stroke-opacity:1"
           d="m 335.55661,285.40379 c -8.49801,-2.82837 -16.79868,-9.9893 -23.65662,-20.40843 -9.54916,-14.50782 -21.83101,-41.28924 -33.68453,-73.45138 -5.17311,-14.03621 -14.68531,-42.9536 -17.0399,-51.80185 -0.40853,-1.5352 -0.88117,-2.20928 -1.63057,-2.32557 -2.67245,-0.41469 5.10976,-7.46362 22.78186,-20.63524 12.65438,-9.43175 16.50451,-12.00831 16.77341,-11.22499 0.13006,0.37887 0.48907,5.57256 0.7978,11.54152 0.87725,16.96045 2.74825,31.85994 5.21881,41.55925 1.04229,4.09201 11.09067,33.46632 15.57167,45.52051 9.06512,24.38573 20.48876,49.31706 30.74462,67.09807 3.64771,6.32419 5.23099,8.27992 5.87714,7.25968 0.88567,-1.3984 0.47657,1.28462 -0.53589,3.51464 -1.53139,3.373 -3.14433,3.95936 -11.39872,4.14387 -5.6817,0.12699 -7.50432,-0.0196 -9.81908,-0.79008 z"
           id="path4542"
           inkscape:connector-curvature="0"
           transform="matrix(0.75000002,0,0,-0.75000002,-314.2021,40.897307)" />
        <path
           style="opacity:1;vector-effect:none;fill:#8aacc4;fill-opacity:1;stroke-width:0.51679379;stroke-linecap:butt;stroke-linejoin:miter;stroke-miterlimit:4;stroke-dasharray:none;stroke-dashoffset:0;stroke-opacity:1"
           d="m 335.00993,285.19478 c -1.86396,-0.65141 -4.7563,-1.99567 -6.42741,-2.98723 -4.07097,-2.41556 -12.42607,-10.70643 -15.61794,-15.4979 -13.00776,-19.52651 -28.97998,-56.30314 -43.20574,-99.4828 -3.35564,-10.18543 -9.13733,-28.81487 -9.13733,-29.44179 0,-0.11108 -0.47654,-0.27628 -1.05897,-0.36711 -1.00267,-0.15636 -0.97412,-0.28012 0.53705,-2.32826 3.2239,-4.36944 38.14612,-31.0468 38.9417,-29.74787 0.13022,0.21261 0.38901,3.29354 0.5751,6.84649 0.89972,17.17889 1.64595,24.96744 3.44123,35.91717 1.42665,8.70139 2.77627,13.48941 8.37608,29.71564 12.5601,36.39464 19.34787,53.1417 30.79095,75.96869 8.66369,17.2826 13.40515,25.14637 14.83187,24.59889 2.18818,-0.83969 -0.83403,5.77638 -3.15373,6.90397 -1.05791,0.51425 -3.76653,0.8065 -8.5271,0.92006 -6.20242,0.14796 -7.35285,0.035 -10.36576,-1.01795 z"
           id="path4544"
           inkscape:connector-curvature="0"
           transform="matrix(0.75000002,0,0,-0.75000002,-314.2021,40.897307)" />
        <path
           style="opacity:1;vector-effect:none;fill:#000000;fill-opacity:1;stroke-width:0.51679379;stroke-linecap:butt;stroke-linejoin:miter;stroke-miterlimit:4;stroke-dasharray:none;stroke-dashoffset:0;stroke-opacity:1"
           d="m 564.82436,287.11008 c -0.61126,-0.44697 -0.69871,-0.72486 -0.27278,-0.86684 0.45153,-0.15051 0.0928,-2.10015 -1.28225,-6.96917 -3.49105,-12.36159 -5.8744,-27.13672 -7.02854,-43.57204 -0.84913,-12.092 -1.24111,-40.38724 -0.56527,-40.80493 0.30504,-0.18853 0.91351,-3.11938 1.35217,-6.513 4.93882,-38.20853 13.38455,-62.24957 26.31406,-74.9038 7.92954,-7.76072 16.05502,-9.33055 25.47603,-4.92192 4.49459,2.10327 10.51203,6.39445 9.29768,6.6304 -0.4964,0.0965 -2.89207,2.8242 -5.32372,6.06166 -16.75258,22.30411 -26.8546,47.36012 -30.30899,75.17526 -0.88177,7.10008 -0.87541,31.4834 0.0102,39.01793 1.07267,9.12623 3.51734,22.6186 5.69009,31.40409 l 2.01519,8.14837 -6.52025,3.6959 c -3.58614,2.03274 -9.09282,4.90641 -12.23707,6.38593 -4.86653,2.28992 -5.85064,2.59218 -6.61651,2.03216 z"
           id="path4546"
           inkscape:connector-curvature="0"
           transform="matrix(0.75000002,0,0,-0.75000002,-314.2021,40.897307)" />
        <path
           style="opacity:1;vector-effect:none;fill:#000000;fill-opacity:1;stroke-width:0.51679379;stroke-linecap:butt;stroke-linejoin:miter;stroke-miterlimit:4;stroke-dasharray:none;stroke-dashoffset:0;stroke-opacity:1"
           d="m 564.87639,287.07248 c -0.16991,-0.1699 -0.19166,-0.61449 -0.0484,-0.98796 0.14332,-0.37348 -0.43385,-3.19957 -1.2826,-6.28021 -5.03066,-18.25933 -7.08243,-34.48071 -7.76811,-61.41487 -0.46477,-18.25693 -0.41738,-19.09759 1.94975,-34.58911 4.01302,-26.2629 8.07106,-41.23344 14.83265,-54.71914 3.28462,-6.55104 5.9931,-10.35921 10.75862,-15.12679 6.29953,-6.30228 11.30787,-8.2738 18.64545,-7.33974 3.48556,0.44371 11.18937,3.98871 14.29233,6.5768 l 1.88928,1.57578 -1.47784,1.58203 c -7.06906,7.56746 -18.72578,26.94989 -23.77045,39.52478 -4.5596,11.36576 -7.91477,23.5987 -9.89062,36.0612 -1.03147,6.50596 -1.16107,9.19758 -1.1493,23.87022 0.0103,12.83476 0.21228,17.92589 0.90212,22.73892 1.31278,9.15925 3.30162,19.70847 5.29533,28.0875 0.97047,4.07867 1.764,7.6833 1.7634,8.01031 -10e-4,0.65686 -10.8992,6.72511 -18.66327,10.39215 -5.01989,2.37093 -5.71873,2.59779 -6.27839,2.03813 z"
           id="path4548"
           inkscape:connector-curvature="0"
           transform="matrix(0.75000002,0,0,-0.75000002,-314.2021,40.897307)" />
        <path
           style="opacity:1;vector-effect:none;fill:#000000;fill-opacity:1;stroke-width:0.51679379;stroke-linecap:butt;stroke-linejoin:miter;stroke-miterlimit:4;stroke-dasharray:none;stroke-dashoffset:0;stroke-opacity:1"
           d="m 564.95185,286.99381 c -0.0337,-0.21318 -0.0355,-0.55645 -0.004,-0.76283 0.0314,-0.20638 -0.97019,-4.3924 -2.22574,-9.30229 -2.41647,-9.44974 -4.50477,-21.22516 -5.43247,-30.63239 -0.30833,-3.1266 -0.67331,-6.73124 -0.81107,-8.0103 -0.65028,-6.03773 -1.26208,-35.73876 -0.81969,-39.79313 3.07985,-28.22555 9.21141,-53.94497 16.26247,-68.21444 3.78276,-7.65533 6.09557,-10.98674 11.15434,-16.06694 6.50039,-6.52792 11.78125,-8.67361 18.88572,-7.67356 3.48606,0.49072 11.23194,4.09893 14.3098,6.66584 l 1.90422,1.58811 -1.31848,1.41138 c -3.52138,3.76951 -10.93596,14.50617 -15.25028,22.08314 -10.0519,17.65354 -16.19749,36.21368 -19.07983,57.62251 -1.01226,7.5187 -0.83677,33.65808 0.28277,42.11869 1.2037,9.09652 3.07594,19.16553 5.22398,28.09474 0.98214,4.08265 1.78325,7.80357 1.78026,8.2687 -0.006,0.91458 -7.33137,5.14573 -17.51282,10.11527 -5.70824,2.78618 -7.22103,3.29823 -7.34904,2.4875 z"
           id="path4550"
           inkscape:connector-curvature="0"
           transform="matrix(0.75000002,0,0,-0.75000002,-314.2021,40.897307)" />
        <path
           style="opacity:1;vector-effect:none;fill:#8aacc4;fill-opacity:1;stroke-width:0.51679379;stroke-linecap:butt;stroke-linejoin:miter;stroke-miterlimit:4;stroke-dasharray:none;stroke-dashoffset:0;stroke-opacity:1"
           d="m 564.95412,287.25221 c -0.0324,-0.0711 -0.13261,-0.74089 -0.22268,-1.48851 -0.0901,-0.74762 -1.09005,-5.04993 -2.22219,-9.56068 -4.25173,-16.94001 -6.04254,-31.62855 -6.85865,-56.25588 -0.6055,-18.27217 -0.58244,-18.74388 1.65524,-33.85732 5.79888,-39.16595 13.64831,-60.66274 26.62053,-72.9041 7.27328,-6.8635 14.12004,-8.54601 22.43018,-5.51194 3.01403,1.10044 8.75107,4.3221 10.77148,6.04877 l 1.21079,1.03476 -2.67013,2.97905 c -3.54783,3.95829 -11.88743,16.51701 -15.87798,23.91086 -7.62825,14.13396 -12.98986,29.75546 -16.22912,47.28497 -0.99692,5.3949 -1.17462,8.46123 -1.36626,23.5746 -0.28299,22.31784 0.67783,31.11913 5.83261,53.42769 0.98516,4.26356 1.79121,8.10542 1.79121,8.53748 0,1.536 -24.29752,14.02455 -24.86503,12.78025 z"
           id="path4552"
           inkscape:connector-curvature="0"
           transform="matrix(0.75000002,0,0,-0.75000002,-314.2021,40.897307)" />
        <path
           style="opacity:1;vector-effect:none;fill:#8aacc4;fill-opacity:1;stroke-width:0.51679379;stroke-linecap:butt;stroke-linejoin:miter;stroke-miterlimit:4;stroke-dasharray:none;stroke-dashoffset:0;stroke-opacity:1"
           d="m 335.55661,285.40379 c -10.73601,-3.57324 -20.14507,-13.14358 -29.36979,-29.87325 -13.47425,-24.4365 -28.64717,-62.61457 -41.87185,-105.35788 -1.40707,-4.54779 -2.8185,-9.24152 -3.1365,-10.43053 -0.41026,-1.53391 -0.8847,-2.20938 -1.63348,-2.32557 -2.66881,-0.41412 4.99611,-7.35935 22.78186,-20.64275 11.09457,-8.28606 16.41249,-11.92402 16.71495,-11.43463 0.14147,0.22891 0.51729,5.41011 0.83515,11.51377 0.89547,17.195 2.75946,32.06594 5.23992,41.80415 1.03819,4.0759 11.08858,33.4617 15.52895,45.40424 8.89442,23.9219 19.95572,48.12886 30.28001,66.26587 4.14856,7.28791 5.70458,9.28055 6.39557,8.1902 0.87395,-1.37906 0.45524,1.32512 -0.54699,3.53259 -1.53139,3.373 -3.14433,3.95936 -11.39872,4.14387 -5.6817,0.12699 -7.50432,-0.0196 -9.81908,-0.79008 z"
           id="path4554"
           inkscape:connector-curvature="0"
           transform="matrix(0.75000002,0,0,-0.75000002,-314.2021,40.897307)" />
        <path
           style="opacity:1;vector-effect:none;fill:#000000;fill-opacity:1;stroke-width:0.51679379;stroke-linecap:butt;stroke-linejoin:miter;stroke-miterlimit:4;stroke-dasharray:none;stroke-dashoffset:0;stroke-opacity:1"
           d="m 335.55661,285.40745 c -3.87666,-1.29525 -5.86313,-2.36817 -9.9384,-5.36789 -4.19635,-3.08883 -9.1248,-8.31898 -12.65742,-13.43224 -11.16424,-16.15958 -27.09932,-52.01283 -40.26523,-90.59498 -2.88852,-8.46469 -10.48659,-32.3869 -11.51999,-36.27021 -0.41549,-1.56132 -0.87594,-2.2073 -1.65764,-2.32557 -1.00017,-0.15132 -0.93069,-0.34718 0.915,-2.57958 1.09855,-1.3287 3.50898,-3.66678 5.35652,-5.19573 10.89668,-9.01764 32.57055,-24.89524 33.14887,-24.28382 0.19299,0.20403 0.61364,5.37094 0.9348,11.48203 0.90732,17.26518 2.7666,32.09244 5.24375,41.81764 1.03876,4.07815 11.08953,33.46427 15.53395,45.41768 8.44338,22.70873 17.48264,42.84678 27.41868,61.08449 6.65189,12.20964 8.39084,14.71592 9.25963,13.34563 0.86577,-1.36553 0.44032,1.35347 -0.55472,3.5451 -1.5179,3.34329 -3.1331,3.92909 -11.39872,4.1341 -5.72395,0.14196 -7.4871,0.003 -9.81908,-0.77665 z"
           id="path4556"
           inkscape:connector-curvature="0"
           transform="matrix(0.75000002,0,0,-0.75000002,-314.2021,40.897307)" />
        <path
           style="opacity:1;vector-effect:none;fill:#8aacc4;fill-opacity:1;stroke:#8aacc4;stroke-width:0.51679379;stroke-linecap:butt;stroke-linejoin:miter;stroke-miterlimit:4;stroke-dasharray:none;stroke-dashoffset:0;stroke-opacity:1"
           d="m 337.10699,285.99794 c -2.4702,-0.50592 -8.54648,-3.64282 -11.7313,-6.05631 -4.018,-3.04489 -9.02837,-8.42941 -12.40777,-13.33431 -12.33663,-17.90552 -28.97236,-56.16753 -43.20908,-99.38047 -3.35564,-10.18543 -9.13733,-28.81487 -9.13733,-29.44179 0,-0.11108 -0.48296,-0.27628 -1.07324,-0.36711 -0.9985,-0.15364 -0.9415,-0.33379 0.81852,-2.5868 3.54539,-4.53845 37.89959,-30.74663 38.66977,-29.50044 0.1386,0.22425 0.51571,5.28917 0.83804,11.25537 0.97371,18.0231 2.83166,32.5318 5.42609,42.37207 2.29627,8.70939 14.28621,42.76586 20.51679,58.27627 7.16024,17.82473 14.21631,33.0175 22.08595,47.55433 5.25696,9.7107 7.82981,13.57004 8.98454,13.47699 1.15386,-0.093 1.11898,1.06952 -0.11356,3.78426 -1.53956,3.391 -3.1417,3.96731 -11.39872,4.10024 -3.8372,0.0618 -7.55811,-0.007 -8.2687,-0.1523 z"
           id="path4558"
           inkscape:connector-curvature="0"
           transform="matrix(0.75000002,0,0,-0.75000002,-314.2021,40.897307)" />
      </g>
      <g
         id="g4611"
         transform="translate(314.2021,324.9927)">
        <path
           d="m 0,0 c -16.453,-29.121 -25.105,-61.976 -29.667,-98.269 3.662,-26.959 12.28,-51.468 24.92,-72.494 3.209,-5.939 10.755,-0.75 7.362,6.23 C -14.524,-118.938 -10.06,-36.602 0,0 m -67.047,-26.341 c -5.828,-17.995 -10.972,-37.7 -15.292,-59.468 10.038,-32.389 21.871,-60.105 35.681,-82.689 2.357,4.538 -3.208,18.694 -2.265,33.699 -13.157,33.966 -17.795,70.72 -18.124,108.458 M 70.862,-9.35 c -18.785,-20.671 -35.398,-47.857 -48.14,-86.653 -0.496,-34.053 3.138,-59.02 10.194,-76.459 11.541,-15.121 15.778,-4.049 14.159,4.248 -12.931,48.341 -1.794,118.64 23.787,158.864 m 33.699,-10.478 C 93.213,-35.485 85.425,-47.287 77.375,-82.693 c 1.2,-30.857 8.37,-67.596 31.717,-90.902 -6.314,18.62 -7.848,41.511 -7.363,67.68 -6.041,26.242 -4.437,53.334 2.832,86.087 m 44.844,-26.079 c -28.237,-34.48 -32.565,-74.479 -20.534,-118.252 49.666,32.157 70.263,66.642 20.534,118.252 m -354.052,2.761 c 2.855,-5.911 5.802,-11.64 9.034,-16.799 2.54,1.13 5.223,2.4 7.764,3.529 2.629,8.417 5.934,16.428 10.446,23.716 -8.717,-3.847 -17.775,-7.353 -27.244,-10.446 m 34.118,-43.831 c -3.739,-27.774 -2.489,-48.896 0.566,-67.612 5.848,12.634 10.967,26.137 16.058,39.528 0.495,17.935 2.639,36.742 6.152,56.939 -7.544,-8.204 -15.232,-18.199 -22.776,-28.855 m 35.08,-8.345 c 0.814,-13.59 1.985,-27.238 7.355,-41.586 4.243,20.039 9.429,37.485 16.691,49.224 -3.065,8.811 -5.612,18.46 -7.921,25.744 -5.057,-7.307 -10.314,-17.019 -16.125,-33.382 m 46.404,55.789 c -0.403,-16.424 2.59,-35.295 6.019,-45.494 4.13,20.828 9.323,40.596 15.401,60.54 0.357,1.73 2.306,3.107 4.786,4.13 11.254,5.983 22.788,11.128 34.514,15.697 -4.2,-26.651 -5.903,-61.809 -2.126,-90.457 3.848,37.982 15.215,70.013 31.327,98.56 14.41,2.633 28.257,3.129 41.253,1.986 -10.439,-30.47 -19.446,-61.915 -19.472,-99.485 11.913,40.324 32.932,70.345 53.133,92.111 10.456,-3.513 20.142,-8.507 29.185,-14.847 1.275,-0.654 1.093,-1.722 0.949,-2.849 -9.083,-28.903 -7.62,-70.33 -3.607,-85.391 1.722,14.854 4.53,32.681 11.329,48.149 10.903,21.292 22.327,22.329 33.99,14.162 13.216,-10.15 22.657,-24.075 28.323,-41.778 6.499,-18.977 0.766,-36.557 -12.241,-51.834 -16.854,-19.516 -35.531,-31.245 -53.895,-39.438 -20.155,17.912 -29.786,45.082 -33.705,87.73 -2.937,-15.657 -4.694,-49.613 -1.276,-68.826 4.791,-26.244 -8.227,-33.561 -22.658,-35.474 -13.447,-1.285 -25.036,3.573 -32.005,8.859 -4.436,-3.898 -5.804,-7.245 -19.402,-7.442 -26.979,1.2 -36.273,22.145 -48.576,52.537 -0.273,-15.729 3.523,-22.107 2.364,-30.564 -1.671,-6.082 -5.191,-5.263 -10.053,-5.525 -10.436,-0.563 -16.76,5.884 -22.901,12.581 -14.745,22.568 -22.821,45.624 -32.855,73.565 -6.536,-11.511 -12.295,-29.771 -16.569,-50.338 -5.371,-2.184 -10.741,-4.368 -16.111,-6.551 -5.721,-2.59 -8.848,1.188 -9.38,11.333 -0.119,5.487 -0.237,10.973 -0.356,16.459 -5.052,-13.474 -10.406,-26.647 -15.931,-39.651 -15.171,-8.024 -35.627,-21.306 -41.602,-30.804 -0.409,6.387 12.626,30.462 13.278,60.551 1.096,23.824 2.635,47.942 9.382,69.208 -2.832,-0.943 -4.603,-2.065 -7.435,-3.009 -3.865,6.89 -6.992,11.995 -9.914,18.412 10.643,3.229 19.012,6.793 28.148,11.153 2.094,0.662 3.219,-1.162 3.939,-1.841 l 9.869,-9.313 c 4.127,-4.839 2.86,-9.052 0.796,-14.599 -2.72,-7.731 -5.428,-18.055 -6.726,-26.739 7.789,10.256 14.161,19.058 21.95,27.175 0.631,0.678 1.635,1.145 3.221,-0.544 2.005,-1.707 4.472,-4.161 6.529,-6.252 1.069,-0.938 2.643,-5.533 2.656,-9.636 0.02,-6.401 -0.094,-15.815 -0.279,-19.596 4.342,11.312 9.099,21.692 15.055,31.019 0.798,1.279 1.733,2.95 3.091,4.043 8.803,7.746 17.671,13.241 26.64,20.086 0.708,1.066 1.947,1.005 1.948,-1.769"
           style="fill:#231f20;fill-opacity:1;fill-rule:evenodd;stroke:#8aacc4;stroke-opacity:1"
           id="path4587"
           inkscape:connector-curvature="0" />
        <path
           transform="matrix(0.75000002,0,0,-0.75000002,-314.2021,40.897307)"
           inkscape:connector-curvature="0"
           id="path4589"
           d="m 219.63883,247.05973 c -3.17255,-2.49553 -4.45931,-10.0963 -4.48184,-26.47392 -0.0118,-8.54989 -0.11104,-9.68988 -0.84382,-9.68988 -0.59774,0 -0.71915,-0.25346 -0.43323,-0.90439 0.21849,-0.49742 0.58036,-3.5788 0.80416,-6.84752 0.2238,-3.26872 0.66319,-9.66405 0.97642,-14.21183 1.30421,-18.93582 6.64117,-58.6561 7.88126,-58.6561 0.24231,0 2.97022,2.49999 6.06204,5.55554 7.70987,7.61943 7.47111,6.76766 7.56304,26.98125 0.0486,10.68957 0.24955,15.80031 0.62617,15.92585 0.37718,0.12572 0.39539,0.60356 0.0569,1.49379 -0.49104,1.29153 -0.0345,9.58876 1.10425,20.06913 1.27039,11.69182 3.60243,22.89607 6.68596,32.12266 1.12004,3.35141 1.86766,6.23938 1.66138,6.41773 -0.20629,0.17835 -5.37505,2.33945 -11.48613,4.80245 -11.83167,4.76861 -13.90072,5.20543 -16.17658,3.41524 z"
           style="opacity:1;vector-effect:none;fill:#8aacc4;fill-opacity:1;stroke-width:0.51679379;stroke-linecap:butt;stroke-linejoin:miter;stroke-miterlimit:4;stroke-dasharray:none;stroke-dashoffset:0;stroke-opacity:1" />
        <path
           transform="matrix(0.75000002,0,0,-0.75000002,-314.2021,40.897307)"
           inkscape:connector-curvature="0"
           id="path4591"
           d="m 335.00993,285.19478 c -5.25767,-1.83742 -9.03157,-4.36509 -14.48188,-9.69963 -9.07215,-8.87945 -18.78293,-26.04654 -30.69474,-54.26335 -9.24071,-21.88948 -23.75092,-63.15413 -28.65484,-81.48967 -0.4084,-1.52698 -0.88605,-2.2099 -1.62654,-2.32557 -0.98727,-0.15421 -0.95537,-0.28977 0.54766,-2.32687 3.20185,-4.33955 38.14731,-31.03668 38.94221,-29.75051 0.14147,0.22891 0.51729,5.41011 0.83515,11.51377 0.89586,17.20255 2.7616,32.08313 5.24143,41.80415 0.90211,3.53632 9.10755,27.69262 14.32141,42.16135 8.54882,23.72343 20.72691,50.60784 31.48604,69.50876 4.14856,7.28791 5.70458,9.28055 6.39557,8.1902 0.87395,-1.37906 0.45524,1.32512 -0.54699,3.53259 -1.52863,3.36692 -3.14524,3.9567 -11.39872,4.15854 -6.20854,0.15183 -7.34987,0.0402 -10.36576,-1.01376 z"
           style="opacity:1;vector-effect:none;fill:#8aacc4;fill-opacity:1;stroke-width:0.51679379;stroke-linecap:butt;stroke-linejoin:miter;stroke-miterlimit:4;stroke-dasharray:none;stroke-dashoffset:0;stroke-opacity:1" />
        <path
           transform="matrix(0.75000002,0,0,-0.75000002,-314.2021,40.897307)"
           inkscape:connector-curvature="0"
           id="path4593"
           d="m 335.55661,285.40379 c -8.49801,-2.82837 -16.79868,-9.9893 -23.65662,-20.40843 -9.54916,-14.50782 -21.83101,-41.28924 -33.68453,-73.45138 -5.17311,-14.03621 -14.68531,-42.9536 -17.0399,-51.80185 -0.40853,-1.5352 -0.88117,-2.20928 -1.63057,-2.32557 -2.67245,-0.41469 5.10976,-7.46362 22.78186,-20.63524 12.65438,-9.43175 16.50451,-12.00831 16.77341,-11.22499 0.13006,0.37887 0.48907,5.57256 0.7978,11.54152 0.87725,16.96045 2.74825,31.85994 5.21881,41.55925 1.04229,4.09201 11.09067,33.46632 15.57167,45.52051 9.06512,24.38573 20.48876,49.31706 30.74462,67.09807 3.64771,6.32419 5.23099,8.27992 5.87714,7.25968 0.88567,-1.3984 0.47657,1.28462 -0.53589,3.51464 -1.53139,3.373 -3.14433,3.95936 -11.39872,4.14387 -5.6817,0.12699 -7.50432,-0.0196 -9.81908,-0.79008 z"
           style="opacity:1;vector-effect:none;fill:#000000;fill-opacity:1;stroke-width:0.51679379;stroke-linecap:butt;stroke-linejoin:miter;stroke-miterlimit:4;stroke-dasharray:none;stroke-dashoffset:0;stroke-opacity:1" />
        <path
           transform="matrix(0.75000002,0,0,-0.75000002,-314.2021,40.897307)"
           inkscape:connector-curvature="0"
           id="path4595"
           d="m 335.00993,285.19478 c -1.86396,-0.65141 -4.7563,-1.99567 -6.42741,-2.98723 -4.07097,-2.41556 -12.42607,-10.70643 -15.61794,-15.4979 -13.00776,-19.52651 -28.97998,-56.30314 -43.20574,-99.4828 -3.35564,-10.18543 -9.13733,-28.81487 -9.13733,-29.44179 0,-0.11108 -0.47654,-0.27628 -1.05897,-0.36711 -1.00267,-0.15636 -0.97412,-0.28012 0.53705,-2.32826 3.2239,-4.36944 38.14612,-31.0468 38.9417,-29.74787 0.13022,0.21261 0.38901,3.29354 0.5751,6.84649 0.89972,17.17889 1.64595,24.96744 3.44123,35.91717 1.42665,8.70139 2.77627,13.48941 8.37608,29.71564 12.5601,36.39464 19.34787,53.1417 30.79095,75.96869 8.66369,17.2826 13.40515,25.14637 14.83187,24.59889 2.18818,-0.83969 -0.83403,5.77638 -3.15373,6.90397 -1.05791,0.51425 -3.76653,0.8065 -8.5271,0.92006 -6.20242,0.14796 -7.35285,0.035 -10.36576,-1.01795 z"
           style="opacity:1;vector-effect:none;fill:#8aacc4;fill-opacity:1;stroke-width:0.51679379;stroke-linecap:butt;stroke-linejoin:miter;stroke-miterlimit:4;stroke-dasharray:none;stroke-dashoffset:0;stroke-opacity:1" />
        <path
           transform="matrix(0.75000002,0,0,-0.75000002,-314.2021,40.897307)"
           inkscape:connector-curvature="0"
           id="path4597"
           d="m 564.82436,287.11008 c -0.61126,-0.44697 -0.69871,-0.72486 -0.27278,-0.86684 0.45153,-0.15051 0.0928,-2.10015 -1.28225,-6.96917 -3.49105,-12.36159 -5.8744,-27.13672 -7.02854,-43.57204 -0.84913,-12.092 -1.24111,-40.38724 -0.56527,-40.80493 0.30504,-0.18853 0.91351,-3.11938 1.35217,-6.513 4.93882,-38.20853 13.38455,-62.24957 26.31406,-74.9038 7.92954,-7.76072 16.05502,-9.33055 25.47603,-4.92192 4.49459,2.10327 10.51203,6.39445 9.29768,6.6304 -0.4964,0.0965 -2.89207,2.8242 -5.32372,6.06166 -16.75258,22.30411 -26.8546,47.36012 -30.30899,75.17526 -0.88177,7.10008 -0.87541,31.4834 0.0102,39.01793 1.07267,9.12623 3.51734,22.6186 5.69009,31.40409 l 2.01519,8.14837 -6.52025,3.6959 c -3.58614,2.03274 -9.09282,4.90641 -12.23707,6.38593 -4.86653,2.28992 -5.85064,2.59218 -6.61651,2.03216 z"
           style="opacity:1;vector-effect:none;fill:#000000;fill-opacity:1;stroke-width:0.51679379;stroke-linecap:butt;stroke-linejoin:miter;stroke-miterlimit:4;stroke-dasharray:none;stroke-dashoffset:0;stroke-opacity:1" />
        <path
           transform="matrix(0.75000002,0,0,-0.75000002,-314.2021,40.897307)"
           inkscape:connector-curvature="0"
           id="path4599"
           d="m 564.87639,287.07248 c -0.16991,-0.1699 -0.19166,-0.61449 -0.0484,-0.98796 0.14332,-0.37348 -0.43385,-3.19957 -1.2826,-6.28021 -5.03066,-18.25933 -7.08243,-34.48071 -7.76811,-61.41487 -0.46477,-18.25693 -0.41738,-19.09759 1.94975,-34.58911 4.01302,-26.2629 8.07106,-41.23344 14.83265,-54.71914 3.28462,-6.55104 5.9931,-10.35921 10.75862,-15.12679 6.29953,-6.30228 11.30787,-8.2738 18.64545,-7.33974 3.48556,0.44371 11.18937,3.98871 14.29233,6.5768 l 1.88928,1.57578 -1.47784,1.58203 c -7.06906,7.56746 -18.72578,26.94989 -23.77045,39.52478 -4.5596,11.36576 -7.91477,23.5987 -9.89062,36.0612 -1.03147,6.50596 -1.16107,9.19758 -1.1493,23.87022 0.0103,12.83476 0.21228,17.92589 0.90212,22.73892 1.31278,9.15925 3.30162,19.70847 5.29533,28.0875 0.97047,4.07867 1.764,7.6833 1.7634,8.01031 -10e-4,0.65686 -10.8992,6.72511 -18.66327,10.39215 -5.01989,2.37093 -5.71873,2.59779 -6.27839,2.03813 z"
           style="opacity:1;vector-effect:none;fill:#000000;fill-opacity:1;stroke-width:0.51679379;stroke-linecap:butt;stroke-linejoin:miter;stroke-miterlimit:4;stroke-dasharray:none;stroke-dashoffset:0;stroke-opacity:1" />
        <path
           transform="matrix(0.75000002,0,0,-0.75000002,-314.2021,40.897307)"
           inkscape:connector-curvature="0"
           id="path4601"
           d="m 564.95185,286.99381 c -0.0337,-0.21318 -0.0355,-0.55645 -0.004,-0.76283 0.0314,-0.20638 -0.97019,-4.3924 -2.22574,-9.30229 -2.41647,-9.44974 -4.50477,-21.22516 -5.43247,-30.63239 -0.30833,-3.1266 -0.67331,-6.73124 -0.81107,-8.0103 -0.65028,-6.03773 -1.26208,-35.73876 -0.81969,-39.79313 3.07985,-28.22555 9.21141,-53.94497 16.26247,-68.21444 3.78276,-7.65533 6.09557,-10.98674 11.15434,-16.06694 6.50039,-6.52792 11.78125,-8.67361 18.88572,-7.67356 3.48606,0.49072 11.23194,4.09893 14.3098,6.66584 l 1.90422,1.58811 -1.31848,1.41138 c -3.52138,3.76951 -10.93596,14.50617 -15.25028,22.08314 -10.0519,17.65354 -16.19749,36.21368 -19.07983,57.62251 -1.01226,7.5187 -0.83677,33.65808 0.28277,42.11869 1.2037,9.09652 3.07594,19.16553 5.22398,28.09474 0.98214,4.08265 1.78325,7.80357 1.78026,8.2687 -0.006,0.91458 -7.33137,5.14573 -17.51282,10.11527 -5.70824,2.78618 -7.22103,3.29823 -7.34904,2.4875 z"
           style="opacity:1;vector-effect:none;fill:#000000;fill-opacity:1;stroke-width:0.51679379;stroke-linecap:butt;stroke-linejoin:miter;stroke-miterlimit:4;stroke-dasharray:none;stroke-dashoffset:0;stroke-opacity:1" />
        <path
           transform="matrix(0.75000002,0,0,-0.75000002,-314.2021,40.897307)"
           inkscape:connector-curvature="0"
           id="path4603"
           d="m 564.95412,287.25221 c -0.0324,-0.0711 -0.13261,-0.74089 -0.22268,-1.48851 -0.0901,-0.74762 -1.09005,-5.04993 -2.22219,-9.56068 -4.25173,-16.94001 -6.04254,-31.62855 -6.85865,-56.25588 -0.6055,-18.27217 -0.58244,-18.74388 1.65524,-33.85732 5.79888,-39.16595 13.64831,-60.66274 26.62053,-72.9041 7.27328,-6.8635 14.12004,-8.54601 22.43018,-5.51194 3.01403,1.10044 8.75107,4.3221 10.77148,6.04877 l 1.21079,1.03476 -2.67013,2.97905 c -3.54783,3.95829 -11.88743,16.51701 -15.87798,23.91086 -7.62825,14.13396 -12.98986,29.75546 -16.22912,47.28497 -0.99692,5.3949 -1.17462,8.46123 -1.36626,23.5746 -0.28299,22.31784 0.67783,31.11913 5.83261,53.42769 0.98516,4.26356 1.79121,8.10542 1.79121,8.53748 0,1.536 -24.29752,14.02455 -24.86503,12.78025 z"
           style="opacity:1;vector-effect:none;fill:#8aacc4;fill-opacity:1;stroke-width:0.51679379;stroke-linecap:butt;stroke-linejoin:miter;stroke-miterlimit:4;stroke-dasharray:none;stroke-dashoffset:0;stroke-opacity:1" />
        <path
           transform="matrix(0.75000002,0,0,-0.75000002,-314.2021,40.897307)"
           inkscape:connector-curvature="0"
           id="path4605"
           d="m 335.55661,285.40379 c -10.73601,-3.57324 -20.14507,-13.14358 -29.36979,-29.87325 -13.47425,-24.4365 -28.64717,-62.61457 -41.87185,-105.35788 -1.40707,-4.54779 -2.8185,-9.24152 -3.1365,-10.43053 -0.41026,-1.53391 -0.8847,-2.20938 -1.63348,-2.32557 -2.66881,-0.41412 4.99611,-7.35935 22.78186,-20.64275 11.09457,-8.28606 16.41249,-11.92402 16.71495,-11.43463 0.14147,0.22891 0.51729,5.41011 0.83515,11.51377 0.89547,17.195 2.75946,32.06594 5.23992,41.80415 1.03819,4.0759 11.08858,33.4617 15.52895,45.40424 8.89442,23.9219 19.95572,48.12886 30.28001,66.26587 4.14856,7.28791 5.70458,9.28055 6.39557,8.1902 0.87395,-1.37906 0.45524,1.32512 -0.54699,3.53259 -1.53139,3.373 -3.14433,3.95936 -11.39872,4.14387 -5.6817,0.12699 -7.50432,-0.0196 -9.81908,-0.79008 z"
           style="opacity:1;vector-effect:none;fill:#8aacc4;fill-opacity:1;stroke-width:0.51679379;stroke-linecap:butt;stroke-linejoin:miter;stroke-miterlimit:4;stroke-dasharray:none;stroke-dashoffset:0;stroke-opacity:1" />
        <path
           transform="matrix(0.75000002,0,0,-0.75000002,-314.2021,40.897307)"
           inkscape:connector-curvature="0"
           id="path4607"
           d="m 335.55661,285.40745 c -3.87666,-1.29525 -5.86313,-2.36817 -9.9384,-5.36789 -4.19635,-3.08883 -9.1248,-8.31898 -12.65742,-13.43224 -11.16424,-16.15958 -27.09932,-52.01283 -40.26523,-90.59498 -2.88852,-8.46469 -10.48659,-32.3869 -11.51999,-36.27021 -0.41549,-1.56132 -0.87594,-2.2073 -1.65764,-2.32557 -1.00017,-0.15132 -0.93069,-0.34718 0.915,-2.57958 1.09855,-1.3287 3.50898,-3.66678 5.35652,-5.19573 10.89668,-9.01764 32.57055,-24.89524 33.14887,-24.28382 0.19299,0.20403 0.61364,5.37094 0.9348,11.48203 0.90732,17.26518 2.7666,32.09244 5.24375,41.81764 1.03876,4.07815 11.08953,33.46427 15.53395,45.41768 8.44338,22.70873 17.48264,42.84678 27.41868,61.08449 6.65189,12.20964 8.39084,14.71592 9.25963,13.34563 0.86577,-1.36553 0.44032,1.35347 -0.55472,3.5451 -1.5179,3.34329 -3.1331,3.92909 -11.39872,4.1341 -5.72395,0.14196 -7.4871,0.003 -9.81908,-0.77665 z"
           style="opacity:1;vector-effect:none;fill:#000000;fill-opacity:1;stroke-width:0.51679379;stroke-linecap:butt;stroke-linejoin:miter;stroke-miterlimit:4;stroke-dasharray:none;stroke-dashoffset:0;stroke-opacity:1" />
        <path
           transform="matrix(0.75000002,0,0,-0.75000002,-314.2021,40.897307)"
           inkscape:connector-curvature="0"
           id="path4609"
           d="m 337.10699,285.99794 c -2.4702,-0.50592 -8.54648,-3.64282 -11.7313,-6.05631 -4.018,-3.04489 -9.02837,-8.42941 -12.40777,-13.33431 -12.33663,-17.90552 -28.97236,-56.16753 -43.20908,-99.38047 -3.35564,-10.18543 -9.13733,-28.81487 -9.13733,-29.44179 0,-0.11108 -0.48296,-0.27628 -1.07324,-0.36711 -0.9985,-0.15364 -0.9415,-0.33379 0.81852,-2.5868 3.54539,-4.53845 37.89959,-30.74663 38.66977,-29.50044 0.1386,0.22425 0.51571,5.28917 0.83804,11.25537 0.97371,18.0231 2.83166,32.5318 5.42609,42.37207 2.29627,8.70939 14.28621,42.76586 20.51679,58.27627 7.16024,17.82473 14.21631,33.0175 22.08595,47.55433 5.25696,9.7107 7.82981,13.57004 8.98454,13.47699 1.15386,-0.093 1.11898,1.06952 -0.11356,3.78426 -1.53956,3.391 -3.1417,3.96731 -11.39872,4.10024 -3.8372,0.0618 -7.55811,-0.007 -8.2687,-0.1523 z"
           style="opacity:1;vector-effect:none;fill:#8aacc4;fill-opacity:1;stroke:#8aacc4;stroke-width:0.51679379;stroke-linecap:butt;stroke-linejoin:miter;stroke-miterlimit:4;stroke-dasharray:none;stroke-dashoffset:0;stroke-opacity:1" />
      </g>
    </g>
    <path
       style="opacity:1;vector-effect:none;fill:#8aacc4;fill-opacity:1;stroke-width:0.03835164;stroke-linecap:butt;stroke-linejoin:miter;stroke-miterlimit:4;stroke-dasharray:none;stroke-dashoffset:0;stroke-opacity:1"
       d="m 12.94425,294.70807 c -0.510482,-0.0867 -1.082146,-0.5715 -1.506339,-1.2777 -0.580139,-0.9658 -1.168323,-2.29984 -1.8286633,-4.14752 -0.2367988,-0.66258 -0.7552163,-2.29807 -0.7552163,-2.38255 0,-0.0122 -0.025892,-0.0122 -0.057526,-6.4e-4 -0.096937,0.0372 -0.064858,-0.033 0.1011824,-0.22172 0.1950972,-0.22165 1.9341492,-1.53269 1.9884972,-1.49909 0.01478,0.009 0.0379,0.32357 0.05137,0.69878 0.03436,0.95705 0.199766,2.02818 0.389629,2.52306 0.04857,0.12656 0.213129,0.60116 0.365724,1.05466 0.485674,1.44344 1.091257,2.87642 1.675016,3.96352 0.358179,0.66704 0.514909,0.91782 0.550859,0.88142 0.0173,-0.0175 0.03799,-0.11807 0.04598,-0.22356 l 0.01457,-0.19176 0.0068,0.22176 c 0.008,0.25659 -0.06354,0.45783 -0.19123,0.53791 -0.110589,0.0693 -0.600436,0.10581 -0.850756,0.0633 z"
       id="path3719"
       inkscape:connector-curvature="0" />
    <path
       style="opacity:1;vector-effect:none;fill:#000000;fill-opacity:1;stroke:#8aacc4;stroke-width:0.03835164;stroke-linecap:butt;stroke-linejoin:miter;stroke-miterlimit:4;stroke-dasharray:none;stroke-dashoffset:0;stroke-opacity:1"
       d="m 19.738508,295.8971 c -0.341132,-0.0838 -0.71834,-0.24693 -0.966842,-0.4179 l -0.173645,-0.11942 -0.233587,0.18823 c -0.295302,0.23796 -0.554357,0.31543 -1.063374,0.31801 -1.051448,0.006 -1.834092,-0.47801 -2.462428,-1.5207 -0.248419,-0.41223 -0.4148,-0.75034 -0.691919,-1.40603 -0.348721,-0.82509 -0.321152,-0.78756 -0.347566,-0.47322 -0.0223,0.26524 -0.02265,0.26389 -0.02934,-0.11074 -0.0062,-0.34206 -0.02398,-0.42866 -0.181964,-0.88208 -0.643681,-1.84731 -0.986128,-3.87102 -1.076175,-6.35964 -0.0166,-0.45901 -0.0397,-0.70926 -0.06405,-0.6942 -0.05994,0.037 0.0081,-0.18842 0.08155,-0.27034 0.06764,-0.0754 1.078102,-0.59415 1.598194,-0.82046 0.281368,-0.12239 1.021926,-0.43118 1.034258,-0.43118 0.003,0 -0.01599,0.14554 -0.04198,0.3234 -0.234049,1.60281 -0.30476,3.90508 -0.164925,5.36998 0.05636,0.59048 0.09365,0.69679 0.128421,0.36619 0.05625,-0.53468 0.260257,-1.66511 0.402859,-2.23228 0.170456,-0.67799 0.459152,-1.61959 0.487785,-1.59094 0.01056,0.0112 -0.04194,0.22355 -0.116615,0.47342 -0.287728,0.96264 -0.521134,2.03752 -0.692732,3.19013 l -0.09328,0.62654 0.09508,0.54318 c 0.178543,1.02007 0.493912,2.09516 0.878964,2.99637 0.323159,0.75635 0.781423,1.60563 0.900888,1.66955 0.132209,0.0708 0.296127,0.0452 0.378195,-0.0591 0.133733,-0.17 0.131589,-0.27708 -0.01421,-0.7077 -0.532885,-1.57395 -0.787383,-3.69954 -0.734703,-6.13626 0.03909,-1.8076 0.224173,-3.53788 0.508082,-4.74961 0.0511,-0.21817 0.08408,-0.41103 0.07324,-0.42858 -0.03553,-0.0574 0.06578,-0.22304 0.149318,-0.24401 0.3554,-0.0892 1.129059,-0.15272 1.890156,-0.1552 0.467568,-6.4e-4 0.859411,0.006 0.870756,0.0178 0.01132,0.0113 -0.08371,0.33925 -0.211262,0.72868 -0.604602,1.8461 -0.941626,3.42376 -1.069443,5.00623 -0.06926,0.85744 -0.02662,3.28941 0.0719,4.10083 0.167799,1.3821 0.449304,2.45109 0.727141,2.76131 0.44639,0.49843 0.788486,0.48967 0.896005,-0.0229 0.03857,-0.18387 0.03182,-0.26217 -0.05754,-0.66793 -0.358353,-1.62717 -0.414673,-3.2585 -0.176733,-5.11939 0.255826,-2.00076 0.881925,-4.00851 1.679062,-5.38433 0.108693,-0.18758 0.197618,-0.35023 0.197618,-0.36143 0,-0.0112 -0.04314,0.0202 -0.09588,0.0697 -0.201113,0.18892 -0.08278,0.006 0.18346,-0.28352 l 0.27829,-0.30268 0.363575,0.1442 c 0.475799,0.18874 0.932123,0.42455 1.370307,0.70814 0.357952,0.23169 0.374025,0.25233 0.328609,0.42213 -0.02246,0.084 -0.02776,0.0862 -0.05045,0.0216 -0.02118,-0.0604 -0.05299,-0.035 -0.193733,0.15546 -0.709272,0.95936 -1.183983,2.01484 -1.577262,3.50682 -0.155232,0.5889 -0.156483,0.5991 -0.134083,1.09303 0.09994,2.20367 0.810969,4.35517 1.833616,5.54837 0.102526,0.11968 0.186411,0.23071 0.186411,0.24687 0,0.0585 -0.242414,-0.20255 -0.466953,-0.50272 -0.816804,-1.09197 -1.300666,-2.54367 -1.56481,-4.69475 -0.04251,-0.3462 -0.08356,-0.63571 -0.09119,-0.64336 -0.0077,-0.007 -0.03327,0.11176 -0.05694,0.26513 -0.118031,0.76496 -0.14034,1.17731 -0.139579,2.58012 7.68e-4,1.20518 0.01213,1.52147 0.06662,1.82783 0.144393,0.81254 0.117572,1.31712 -0.09314,1.75238 -0.177782,0.36726 -0.579727,0.65008 -1.123299,0.7904 -0.323737,0.0836 -1.03019,0.0741 -1.408754,-0.0191 z"
       id="path3721"
       inkscape:connector-curvature="0" />
    <path
       style="opacity:1;vector-effect:none;fill:#8aacc4;fill-opacity:1;stroke:#8aacc4;stroke-width:0.03835164;stroke-linecap:butt;stroke-linejoin:miter;stroke-miterlimit:4;stroke-dasharray:none;stroke-dashoffset:0;stroke-opacity:1"
       d="m 2.4109554,295.58237 c 0,-0.015 0.1197341,-0.40296 0.2660758,-0.86225 0.5178718,-1.62532 0.6098538,-2.12803 0.6931462,-3.78816 0.087395,-1.74186 0.2771252,-3.15942 0.5364159,-4.00775 0.099262,-0.32476 0.099026,-0.35976 -0.00205,-0.30568 -0.043356,0.0234 -0.097292,0.0362 -0.119854,0.0286 -0.022563,-0.007 0.026094,-0.0439 0.108126,-0.0809 0.137257,-0.0619 0.1577755,-0.0923 0.2573046,-0.38085 0.1260784,-0.36557 0.3414812,-0.85148 0.4934982,-1.1132 0.1292808,-0.22258 0.1322069,-0.25557 0.020496,-0.23108 -0.069326,0.0153 -0.074981,0.0113 -0.028766,-0.0222 0.1354032,-0.0968 0.2351584,-0.0437 0.659056,0.35083 0.2323461,0.21621 0.4552417,0.45713 0.4953229,0.53539 0.1029435,0.20102 0.090817,0.42377 -0.044579,0.8189 -0.2550043,0.74419 -0.5260003,1.94268 -0.4251779,1.88036 0.064458,-0.0398 0.053974,0.004 -0.02892,0.12265 -0.083615,0.11901 -0.1328377,0.47139 -0.1993598,1.42706 -0.066618,0.95705 0.00108,2.42056 0.1508589,3.26296 l 0.030144,0.16949 0.082327,-0.1534 c 0.1024539,-0.19091 0.1107779,-0.12238 0.012872,0.10604 -0.06657,0.15532 -0.1119638,0.19228 -0.5273342,0.42948 -0.9446755,0.53946 -1.8982337,1.23353 -2.2549802,1.64134 -0.096045,0.10985 -0.1746241,0.18739 -0.1746241,0.17244 z"
       id="path3723"
       inkscape:connector-curvature="0" />
    <path
       style="opacity:1;vector-effect:none;fill:#145889;fill-opacity:1;stroke:#145889;stroke-width:0.03835917;stroke-linecap:butt;stroke-linejoin:miter;stroke-miterlimit:4;stroke-dasharray:none;stroke-dashoffset:0;stroke-opacity:1"
       d="m 20.02924,295.93753 c -0.448028,-0.0635 -0.865407,-0.21916 -1.251021,-0.4666 l -0.183724,-0.11795 -0.170923,0.14007 c -0.291904,0.2392 -0.54869,0.33338 -0.97262,0.35674 -1.104132,0.061 -1.966214,-0.4463 -2.622787,-1.54292 -0.201092,-0.33587 -0.486274,-0.92339 -0.739986,-1.52448 -0.122423,-0.29003 -0.23588,-0.52733 -0.252135,-0.52733 -0.01625,0 -0.03674,0.0474 -0.04554,0.10535 -0.0088,0.058 -0.01855,-0.002 -0.02172,-0.13564 -0.0042,-0.17952 -0.06442,-0.42127 -0.23538,-0.94634 -0.602204,-1.8494 -0.883532,-3.51074 -1.000392,-5.9076 -0.02468,-0.50625 -0.05858,-0.9377 -0.07532,-0.9588 -0.01674,-0.021 -0.0087,-0.0902 0.01798,-0.1535 0.03685,-0.0876 0.134608,-0.16164 0.409016,-0.30966 0.721328,-0.3891 2.196167,-1.05064 2.241421,-1.00539 0.01067,0.0113 -0.01504,0.30224 -0.05702,0.64806 -0.140111,1.15411 -0.172849,1.75695 -0.172638,3.17911 2.68e-4,1.27736 0.04159,2.06887 0.121387,2.32028 0.02262,0.0713 0.02654,0.0699 0.05517,-0.0194 0.01874,-0.0584 0.02287,-6.4e-4 0.01056,0.14355 -0.05066,0.59797 0.487245,2.68553 0.981229,3.80809 0.33937,0.77119 0.765317,1.54718 0.884176,1.6108 0.110298,0.059 0.286908,0.0427 0.355204,-0.0328 0.158436,-0.17507 0.154049,-0.2594 -0.04885,-0.93917 -0.470738,-1.57712 -0.664419,-3.11973 -0.665451,-5.30007 -7.04e-4,-1.54259 0.08039,-2.80166 0.261916,-4.06528 0.07098,-0.49408 0.323856,-1.82352 0.361104,-1.8984 0.04082,-0.0821 0.315249,-0.14182 0.867954,-0.18907 0.617714,-0.0527 1.971894,-0.0546 1.971894,-0.002 0,0.021 -0.09347,0.33606 -0.207723,0.69992 -0.635337,2.02359 -0.927381,3.38295 -1.056688,4.91866 -0.05003,0.59407 -0.05028,2.54205 -3.71e-4,3.35575 0.09321,1.52169 0.412906,3.03807 0.740807,3.51388 0.0692,0.10042 0.208668,0.23968 0.309932,0.30946 0.335639,0.2313 0.558579,0.14052 0.642971,-0.26182 0.03938,-0.1877 0.03141,-0.27186 -0.07609,-0.80218 -0.203152,-1.00243 -0.243314,-1.39247 -0.26439,-2.56758 -0.01518,-0.84676 -0.0053,-1.24423 0.04407,-1.76418 0.2174,-2.29127 0.873398,-4.5289 1.789659,-6.1046 0.160379,-0.2758 0.18163,-0.33672 0.09133,-0.26177 -0.136197,0.11309 -0.03592,-0.0395 0.18545,-0.28219 l 0.239961,-0.263 0.336058,0.13911 c 0.702465,0.29078 1.615903,0.80789 1.70346,0.96436 0.0441,0.0789 0.01435,0.24152 -0.0308,0.16846 -0.01902,-0.0309 -0.09989,0.0501 -0.23633,0.23645 -0.608973,0.83161 -1.01241,1.67654 -1.380457,2.89116 -0.290835,0.95978 -0.311037,1.08192 -0.288615,1.74499 0.01477,0.43718 0.01078,0.53358 -0.01498,0.36434 -0.07596,-0.49848 -0.07823,-0.50682 -0.112693,-0.41622 -0.01724,0.0453 -0.06211,0.32143 -0.09973,0.61363 -0.102031,0.7926 -0.101975,3.39644 4.6e-5,4.07028 0.09289,0.61327 0.07439,1.19811 -0.04784,1.51196 -0.16056,0.41235 -0.5524,0.73608 -1.078166,0.89076 -0.254242,0.0748 -0.889348,0.10671 -1.21237,0.061 z"
       id="path3725"
       inkscape:connector-curvature="0" />
    <path
       style="opacity:1;vector-effect:none;fill:#000000;fill-opacity:1;stroke-width:0.03835164;stroke-linecap:butt;stroke-linejoin:miter;stroke-miterlimit:4;stroke-dasharray:none;stroke-dashoffset:0;stroke-opacity:1"
       d=""
       id="path4532"
       inkscape:connector-curvature="0" />
    <path
       style="opacity:1;vector-effect:none;fill:#000000;fill-opacity:1;stroke-width:0.03835164;stroke-linecap:butt;stroke-linejoin:miter;stroke-miterlimit:4;stroke-dasharray:none;stroke-dashoffset:0;stroke-opacity:1"
       d="m 19.96952,295.93858 c -0.426292,-0.0782 -0.964745,-0.29305 -1.264192,-0.50451 -0.100638,-0.071 -0.101414,-0.0709 -0.249285,0.0471 -0.445095,0.35506 -1.02571,0.46209 -1.731955,0.31927 -0.48375,-0.0978 -0.890943,-0.32263 -1.278577,-0.70595 -0.182044,-0.18002 -0.408579,-0.4481 -0.503413,-0.59575 -0.206552,-0.32161 -0.552628,-1.00622 -0.853339,-1.6881 -0.120779,-0.27387 -0.227151,-0.50608 -0.236389,-0.51602 -0.0093,-0.009 -0.03072,0.006 -0.04774,0.0322 -0.01902,0.0309 -0.04085,-0.0376 -0.05666,-0.1772 -0.01414,-0.12495 -0.120874,-0.53636 -0.237189,-0.91411 -0.628683,-2.04176 -0.821195,-3.19658 -0.995857,-5.97382 l -0.06236,-0.99162 0.108726,-0.11457 c 0.112611,-0.11861 1.232278,-0.6871 1.978384,-1.00445 0.453674,-0.19297 0.604038,-0.2404 0.604009,-0.19057 -1.2e-5,0.0181 -0.04473,0.42987 -0.09934,0.91502 -0.185671,1.64904 -0.166583,5.33278 0.02702,5.21313 0.01869,-0.0122 0.03399,0.1076 0.03399,0.26466 0,0.34334 0.06787,0.72324 0.275269,1.54056 0.299296,1.1795 0.574813,1.9239 1.076764,2.90913 0.43766,0.85906 0.593483,0.99989 0.836961,0.7564 0.147167,-0.14716 0.143768,-0.2183 -0.04137,-0.86592 -0.291557,-1.01987 -0.466415,-1.93479 -0.582696,-3.0489 -0.06883,-0.65948 -0.06867,-4.07011 2.68e-4,-4.8323 0.09683,-1.07118 0.348593,-2.71431 0.504734,-3.29418 0.04598,-0.17069 0.116385,-0.20941 0.499672,-0.2748 0.335031,-0.0571 2.294373,-0.0965 2.343801,-0.0471 0.02455,0.0245 -0.06315,0.37422 -0.252897,1.00818 -0.717011,2.3957 -0.947803,3.67515 -0.999647,5.54177 -0.04095,1.47428 0.04823,3.0625 0.231476,4.1228 0.233436,1.35069 0.503604,1.96551 0.960991,2.18691 0.227588,0.11008 0.367629,0.0615 0.455657,-0.15856 0.08422,-0.21047 0.07515,-0.4726 -0.03631,-1.05038 -0.169408,-0.87812 -0.21325,-1.3401 -0.236585,-2.49285 -0.03796,-1.87492 0.174505,-3.41751 0.721021,-5.235 0.261295,-0.86897 0.785082,-2.1011 1.142266,-2.687 0.08699,-0.14271 0.103177,-0.20783 0.04232,-0.17021 -0.10174,0.0628 -0.01495,-0.0674 0.204682,-0.3074 l 0.243032,-0.26551 0.265127,0.11075 c 0.615084,0.25701 1.496005,0.73241 1.693725,0.91398 0.11168,0.10256 0.109524,0.20917 -0.0061,0.30011 -0.135508,0.10659 -0.600069,0.81995 -0.841524,1.29221 -0.27604,0.53991 -0.482228,1.06392 -0.71701,1.82224 -0.256191,0.8275 -0.31195,1.16102 -0.286515,1.71375 0.0196,0.42572 -0.01349,0.47029 -0.07535,0.10154 -0.01362,-0.0813 -0.03342,-0.1391 -0.04395,-0.12858 -0.01056,0.0113 -0.04494,0.1633 -0.07643,0.33948 -0.07894,0.44154 -0.11896,3.34984 -0.05507,4.0021 0.115873,1.18301 0.09253,1.62619 -0.10475,1.98866 -0.177573,0.32625 -0.545042,0.59428 -0.999769,0.7292 -0.242469,0.072 -1.022116,0.11119 -1.277569,0.0645 z"
       id="path4534"
       inkscape:connector-curvature="0" />
    <path
       style="opacity:1;vector-effect:none;fill:#145889;fill-opacity:1;stroke:#145889;stroke-width:0.03835164;stroke-linecap:butt;stroke-linejoin:miter;stroke-miterlimit:4;stroke-dasharray:none;stroke-dashoffset:0;stroke-opacity:1"
       d="m 19.638076,295.83138 c -0.179293,-0.0527 -0.486654,-0.18065 -0.683021,-0.2839 l -0.357034,-0.18775 -0.181765,0.1306 c -0.40948,0.29418 -0.867032,0.39982 -1.4171,0.32717 -0.673314,-0.089 -1.15556,-0.33965 -1.638986,-0.85213 -0.407506,-0.43196 -0.633646,-0.82006 -1.212995,-2.0817 -0.145042,-0.31586 -0.287178,-0.5874 -0.315863,-0.60346 -0.02869,-0.0161 -0.06444,-0.11108 -0.07946,-0.21124 -0.01502,-0.10019 -0.11896,-0.49303 -0.230974,-0.87308 -0.634976,-2.15436 -0.788866,-3.07344 -0.975542,-5.82627 -0.05403,-0.79657 -0.06165,-1.08744 -0.02978,-1.13843 0.05973,-0.0957 0.407369,-0.2962 1.098866,-0.63393 0.69347,-0.33869 1.2505,-0.58089 1.408829,-0.61254 l 0.112517,-0.0225 -0.06806,0.62649 c -0.106547,0.98068 -0.146932,1.89927 -0.145558,3.31109 0.0014,1.40179 0.03594,1.98773 0.130659,2.21359 0.03289,0.0784 0.05979,0.24477 0.05979,0.36969 0,0.26584 0.09578,0.75516 0.306343,1.56519 0.287578,1.10626 0.639073,2.01924 1.126115,2.92494 0.268576,0.49945 0.428363,0.6928 0.572533,0.6928 0.128449,0 0.296108,-0.19817 0.296108,-0.34999 0,-0.0626 -0.07737,-0.40224 -0.171938,-0.75451 -0.311296,-1.15962 -0.481411,-2.1015 -0.555525,-3.07583 -0.051,-0.67061 -0.05045,-3.80596 8e-4,-4.52549 0.06434,-0.90322 0.293891,-2.50318 0.464087,-3.23476 0.07462,-0.32074 0.08598,-0.3422 0.208453,-0.39336 0.07125,-0.0298 0.289464,-0.071 0.484932,-0.0915 0.462329,-0.0488 2.177098,-0.0507 2.177098,-0.002 0,0.0198 -0.136959,0.51609 -0.304355,1.10262 -0.832628,2.91743 -0.9975,4.06884 -0.948972,6.6274 0.04792,2.52647 0.36814,4.26408 0.893504,4.84841 0.200844,0.22339 0.46286,0.34515 0.604164,0.28076 0.242936,-0.11063 0.268866,-0.47694 0.102042,-1.44132 -0.155504,-0.89892 -0.192117,-1.40018 -0.192578,-2.63661 -7.68e-4,-1.7149 0.139016,-2.80615 0.55977,-4.37383 0.289642,-1.07916 0.86943,-2.52304 1.288072,-3.20775 0.04224,-0.0692 0.06694,-0.15135 0.05485,-0.18282 -0.01348,-0.035 0.0537,-0.14203 0.174118,-0.27708 0.107838,-0.1209 0.208084,-0.23339 0.222766,-0.24991 0.05889,-0.0662 1.475289,0.62303 1.829634,0.89039 0.244259,0.1843 0.251034,0.26257 0.04329,0.50004 -0.228983,0.26176 -0.7131,1.08177 -0.948406,1.60644 -0.217437,0.48482 -0.520598,1.35731 -0.674851,1.9422 -0.06986,0.26485 -0.110276,0.54368 -0.13066,0.90125 -0.01623,0.28476 -0.0324,0.4746 -0.03594,0.42187 -0.0035,-0.0526 -0.02154,-0.1197 -0.04002,-0.14889 -0.04245,-0.067 -0.06059,-0.0122 -0.126091,0.37899 -0.0444,0.26537 -0.0525,2.29801 -0.01974,4.96655 0.0078,0.64192 0.0063,0.6553 -0.09793,0.86768 -0.209436,0.42647 -0.705128,0.76015 -1.245236,0.83825 -0.481772,0.0697 -1.028954,0.0456 -1.390974,-0.0613 z"
       id="path4536"
       inkscape:connector-curvature="0" />
    <path
       style="opacity:1;vector-effect:none;fill:#000000;fill-opacity:1;stroke-width:0.01355936;stroke-linecap:butt;stroke-linejoin:miter;stroke-miterlimit:4;stroke-dasharray:none;stroke-dashoffset:0;stroke-opacity:1"
       d="m 23.916522,293.65551 c -0.217831,-0.33854 -0.401287,-0.70432 -0.578971,-1.1543 -0.09343,-0.23664 -0.238819,-0.66439 -0.237677,-0.6993 3.7e-4,-0.0122 0.04218,0.0975 0.09285,0.24292 0.209688,0.6017 0.477087,1.17862 0.743469,1.60402 0.04108,0.0656 0.0717,0.12225 0.06802,0.1259 -0.0036,0.005 -0.04313,-0.05 -0.0877,-0.11928 z"
       id="path4560"
       inkscape:connector-curvature="0" />
    <path
       style="opacity:1;vector-effect:none;fill:#000000;fill-opacity:1;stroke-width:0.01355936;stroke-linecap:butt;stroke-linejoin:miter;stroke-miterlimit:4;stroke-dasharray:none;stroke-dashoffset:0;stroke-opacity:1"
       d="m 23.915976,293.65551 c -0.202655,-0.31285 -0.40826,-0.72276 -0.57667,-1.14966 -0.09497,-0.24076 -0.240574,-0.66881 -0.239437,-0.70394 3.71e-4,-0.0122 0.03911,0.0883 0.08608,0.22258 0.209973,0.60016 0.445785,1.11777 0.707014,1.55194 0.06396,0.10636 0.113677,0.19594 0.110456,0.19918 -0.0033,0.002 -0.04258,-0.0507 -0.08745,-0.1201 z"
       id="path4562"
       inkscape:connector-curvature="0" />
    <path
       style="opacity:1;vector-effect:none;fill:#000000;fill-opacity:1;stroke-width:0.01355936;stroke-linecap:butt;stroke-linejoin:miter;stroke-miterlimit:4;stroke-dasharray:none;stroke-dashoffset:0;stroke-opacity:1"
       d="m 23.91416,293.65275 c -0.204272,-0.31534 -0.424392,-0.75653 -0.589941,-1.18243 -0.08727,-0.22452 -0.225351,-0.63534 -0.224355,-0.66754 3.72e-4,-0.0122 0.03605,0.0783 0.0793,0.20137 0.217164,0.61812 0.461091,1.15276 0.728114,1.59585 0.0562,0.0932 0.09952,0.17225 0.09624,0.17553 -0.0033,0.002 -0.04348,-0.052 -0.08935,-0.1228 z"
       id="path4564"
       inkscape:connector-curvature="0" />
  </g>
</svg>
